<svg width="98" height="124" viewBox="0 0 98 124" fill="none" xmlns="http://www.w3.org/2000/svg">
<path d="M44.5655 60.884C43.169 60.884 42.0665 62.434 42.0665 64.325C42.0665 66.216 43.1935 67.766 44.5655 67.766C45.962 67.766 47.0645 66.216 47.0645 64.325C47.089 62.434 45.962 60.884 44.5655 60.884ZM53.508 60.884C52.1115 60.884 51.009 62.434 51.009 64.325C51.009 66.216 52.136 67.766 53.508 67.766C54.9045 67.766 56.007 66.216 56.007 64.325C56.007 62.434 54.9045 60.884 53.508 60.884Z" fill="white"/>
<path d="M65.415 34.875H32.585C29.8165 34.875 27.5625 37.727 27.5625 41.261V83.173C27.5625 86.707 29.8165 89.559 32.585 89.559H60.368L59.0695 83.824L62.2055 87.513L65.17 90.985L70.4375 96.875V41.261C70.4375 37.727 68.1835 34.875 65.415 34.875ZM55.958 75.361C55.958 75.361 55.076 74.028 54.341 72.85C57.5505 71.703 58.7755 69.161 58.7755 69.161C57.771 69.998 56.8155 70.587 55.958 70.99C54.733 71.641 53.557 72.075 52.4055 72.323C50.0535 72.881 47.8975 72.726 46.06 72.292C44.6635 71.951 43.463 71.455 42.4585 70.959C41.895 70.68 41.2825 70.339 40.67 69.905C40.5965 69.843 40.523 69.812 40.4495 69.75C40.4005 69.719 40.376 69.688 40.3515 69.657C39.9105 69.347 39.6655 69.13 39.6655 69.13C39.6655 69.13 40.8415 71.61 43.953 72.788C43.218 73.966 42.3115 75.361 42.3115 75.361C36.897 75.144 34.839 70.649 34.839 70.649C34.839 60.667 38.367 52.576 38.367 52.576C41.895 49.228 45.2515 49.321 45.2515 49.321L45.4965 49.693C41.0865 51.305 39.053 53.754 39.053 53.754C39.053 53.754 39.592 53.382 40.4985 52.855C43.12 51.398 45.2025 50.995 46.06 50.902C46.207 50.871 46.3295 50.84 46.4765 50.84C47.971 50.592 49.6615 50.53 51.4255 50.778C53.753 51.119 56.252 51.987 58.8 53.754C58.8 53.754 56.8645 51.429 52.6995 49.817L53.0425 49.321C53.0425 49.321 56.399 49.228 59.927 52.576C59.927 52.576 63.455 60.667 63.455 70.649C63.455 70.649 61.3725 75.144 55.958 75.361Z" fill="white"/>
</svg>
