<svg width="78" height="124" viewBox="0 0 78 124" fill="none" xmlns="http://www.w3.org/2000/svg">
<path d="M38.9998 35.65C44.3623 35.65 45.0936 35.65 47.2873 35.65C49.2373 35.65 50.2123 36.425 50.9436 36.8125C51.9186 37.5875 52.6498 37.975 53.3811 39.1375C54.1123 40.3 54.5998 41.4625 54.8436 43.0125C55.0873 44.175 55.3311 45.725 55.5748 48.825C55.5748 52.3125 55.5748 53.0875 55.5748 62C55.5748 70.9125 55.5748 71.6875 55.5748 75.175C55.5748 78.275 55.0873 79.825 54.8436 80.9875C54.3561 82.5375 54.1123 83.7 53.3811 84.8625C52.6498 86.025 51.9186 86.8 50.9436 87.1875C50.2123 87.575 49.2373 87.9625 47.2873 88.35C45.0936 88.35 44.6061 88.35 38.9998 88.35C33.3936 88.35 32.9061 88.35 30.7123 88.35C28.7623 88.35 27.7873 87.575 27.0561 87.1875C26.0811 86.4125 25.3498 86.025 24.6186 84.8625C23.8873 83.7 23.3998 82.5375 23.1561 80.9875C22.9123 79.825 22.6686 78.275 22.4248 75.175C22.4248 71.6875 22.4248 70.9125 22.4248 62C22.4248 53.0875 22.4248 52.3125 22.4248 48.825C22.4248 45.725 22.9123 44.175 23.1561 43.0125C23.6436 41.4625 23.8873 40.3 24.6186 39.1375C25.3498 37.975 26.0811 37.2 27.0561 36.8125C27.7873 36.425 28.7623 36.0375 30.7123 35.65C32.9061 35.65 33.6373 35.65 38.9998 35.65ZM38.9998 29.8375C33.3936 29.8375 32.9061 29.8375 30.7123 29.8375C28.5186 29.8375 27.0561 30.6125 25.8373 31.3875C24.6186 32.1625 23.3998 33.325 22.1811 35.2625C20.9623 37.2 20.4748 38.75 19.7436 41.075C19.2561 43.0125 19.0123 45.3375 18.7686 48.825C18.7686 52.3125 18.7686 53.475 18.7686 62C18.7686 70.9125 18.7686 71.6875 18.7686 75.175C18.7686 78.6625 19.2561 80.9875 19.7436 82.925C20.2311 84.8625 20.9623 86.8 22.1811 88.7375C23.3998 90.675 24.3748 91.45 25.8373 92.6125C27.0561 93.3875 28.5186 93.775 30.7123 94.1625C32.9061 94.1625 33.6373 94.1625 38.9998 94.1625C44.3623 94.1625 45.0936 94.1625 47.2873 94.1625C49.4811 94.1625 50.9436 93.3875 52.1623 92.6125C53.3811 91.8375 54.5998 90.675 55.8186 88.7375C57.0373 86.8 57.5248 85.25 58.2561 82.925C58.7436 80.9875 58.9873 78.6625 59.2311 75.175C59.2311 71.6875 59.2311 70.525 59.2311 62C59.2311 53.475 59.2311 52.3125 59.2311 48.825C59.2311 45.3375 58.7436 43.0125 58.2561 41.075C57.7686 39.1375 57.0373 37.2 55.8186 35.2625C54.5998 33.325 53.6248 32.55 52.1623 31.3875C50.9436 30.6125 49.4811 30.225 47.2873 29.8375C45.0936 29.8375 44.6061 29.8375 38.9998 29.8375Z" fill="white"/>
<path d="M38.9998 45.3375C33.1498 45.3375 28.5186 52.7 28.5186 62C28.5186 71.3 33.1498 78.6625 38.9998 78.6625C44.8498 78.6625 49.4811 71.3 49.4811 62C49.4811 52.7 44.8498 45.3375 38.9998 45.3375ZM38.9998 72.85C35.3436 72.85 32.1748 68.2 32.1748 62C32.1748 56.1875 35.0998 51.15 38.9998 51.15C42.6561 51.15 45.8248 55.8 45.8248 62C45.8248 67.8125 42.6561 72.85 38.9998 72.85Z" fill="white"/>
<path d="M49.7248 48.825C51.071 48.825 52.1623 47.0901 52.1623 44.95C52.1623 42.8099 51.071 41.075 49.7248 41.075C48.3786 41.075 47.2873 42.8099 47.2873 44.95C47.2873 47.0901 48.3786 48.825 49.7248 48.825Z" fill="white"/>
</svg>
