<svg width="90" height="124" viewBox="0 0 90 124" fill="none" xmlns="http://www.w3.org/2000/svg">
<path fill-rule="evenodd" clip-rule="evenodd" d="M60.75 39.9125C56.5313 34.1 50.9062 31 45 31C32.625 31 22.5 44.95 22.5 62C22.5 67.425 23.625 72.85 25.5938 77.5L22.5 93L34.3125 88.7375C37.6875 91.0625 41.3438 92.6125 45 92.6125C57.375 92.6125 67.5 78.6625 67.5 61.6125C67.5 53.475 64.9688 45.725 60.75 39.9125ZM45 87.575C41.625 87.575 38.25 86.4125 35.4375 84.0875L34.875 83.7L27.8437 86.4125L29.8125 77.1125L29.25 75.95C27.2812 71.6875 26.4375 67.0375 26.4375 62.3875C26.4375 48.4375 34.875 36.8125 45 36.8125C50.0625 36.8125 54.5625 39.525 58.2188 44.175C61.875 49.2125 63.5625 55.4125 63.5625 62.3875C63.5625 75.95 55.4063 87.575 45 87.575ZM55.125 68.2C54.5625 67.8125 51.75 65.875 51.1875 65.875C50.625 65.4875 50.3437 65.4875 50.0625 66.2625C49.7812 67.0375 48.6563 68.5875 48.375 69.3625C48.0938 69.75 47.8125 69.75 47.25 69.75C46.6875 69.3625 45 68.5875 42.75 65.875C41.0625 63.9375 39.9375 61.225 39.6563 60.45C39.375 59.675 39.6563 59.2875 39.9375 58.9C40.2188 58.5125 40.5 58.125 40.7812 57.7375C41.0625 57.35 41.0625 56.9625 41.3438 56.575C41.625 56.1875 41.3438 55.8 41.3438 55.4125C41.3438 55.025 40.2188 51.15 39.6563 49.6C39.375 48.4375 38.8125 48.4375 38.5313 48.4375C38.25 48.4375 37.9687 48.4375 37.4062 48.4375C37.125 48.4375 36.5625 48.4375 36 49.2125C35.4375 49.9875 34.0313 51.925 34.0313 55.8C34.0313 59.675 36 63.1625 36.2812 63.9375C36.5625 64.325 40.2187 72.4625 45.8437 75.5625C50.625 78.275 51.4688 77.5 52.5938 77.5C53.7188 77.5 55.9687 75.5625 56.25 74.0125C56.8125 72.075 56.8125 70.525 56.5313 70.525C56.25 68.5875 55.6875 68.5875 55.125 68.2Z" fill="white"/>
</svg>
